<?xml version="1.0" standalone="no"?><!DOCTYPE svg PUBLIC "-//W3C//DTD SVG 1.1//EN" "http://www.w3.org/Graphics/SVG/1.1/DTD/svg11.dtd"><svg t="1747835907114" class="icon" viewBox="0 0 1024 1024" version="1.1" xmlns="http://www.w3.org/2000/svg" p-id="8865" xmlns:xlink="http://www.w3.org/1999/xlink" width="200" height="200"><path d="M512 0c-283.306667 0-512 228.693333-512 512s228.693333 512 512 512 512-228.693333 512-512-228.693333-512-512-512z m0 989.866667c-264.533333 0-477.866667-213.333333-477.866667-477.866667s213.333333-477.866667 477.866667-477.866667 477.866667 213.333333 477.866667 477.866667-213.333333 477.866667-477.866667 477.866667z" fill="#808080" p-id="8866"></path><path d="M512 588.8c59.733333-1.706667 105.813333-49.493333 105.813333-109.226667v-131.413333c1.706667-58.026667-42.666667-107.52-102.4-109.226667s-107.52 42.666667-109.226666 102.4v138.24c0 58.026667 46.08 107.52 105.813333 109.226667z" fill="#808080" p-id="8867"></path><path d="M699.733333 510.293333c1.706667-6.826667-1.706667-15.36-6.826666-20.48-5.12-5.12-13.653333-6.826667-20.48-3.413333-6.826667 3.413333-11.946667 8.533333-13.653334 17.066667-10.24 80.213333-83.626667 138.24-163.84 128-66.56-8.533333-119.466667-61.44-128-128-1.706667-6.826667-6.826667-13.653333-13.653333-17.066667-6.826667-3.413333-15.36-1.706667-20.48 3.413333-5.12 5.12-8.533333 11.946667-6.826667 20.48 11.946667 87.04 80.213333 153.6 165.546667 165.546667v66.56h-63.146667c-11.946667 0-22.186667 10.24-20.48 22.186667 0 11.946667 10.24 20.48 20.48 20.48h168.96c11.946667 0 22.186667-10.24 20.48-22.186667 0-11.946667-10.24-20.48-20.48-20.48h-63.146666v-66.56c85.333333-11.946667 153.6-80.213333 165.546666-165.546667z" fill="#808080" p-id="8868"></path></svg>