<?xml version="1.0" standalone="no"?><!DOCTYPE svg PUBLIC "-//W3C//DTD SVG 1.1//EN" "http://www.w3.org/Graphics/SVG/1.1/DTD/svg11.dtd"><svg t="1747839346048" class="icon" viewBox="0 0 1024 1024" version="1.1" xmlns="http://www.w3.org/2000/svg" p-id="5195" xmlns:xlink="http://www.w3.org/1999/xlink" width="200" height="200"><path d="M643.983834 150.031082H511.978668c-5.994417 0-12.010166-5.994417-12.010167-11.988834V12.031499c0-5.973084 6.015749-11.988834 12.010167-11.988834h132.005166c5.973084 0 9.983584 2.00525 11.988834 5.994417 2.00525 4.0105 0 10.004916-2.00525 12.010166l-39.998333 55.997667 39.998333 55.997667c2.00525 1.983917 2.00525 5.994417 2.00525 7.999666 0 5.994417-4.0105 11.988834-12.010166 11.988834z" fill="#F74933" p-id="5196"></path><path d="M511.978668 262.026416c-5.994417 0-12.010166-3.989167-12.010167-11.988834V12.052831C499.989834 6.015749 506.005583 0.042665 511.978668 0.042665c5.994417 0 12.010166 5.994417 12.010166 12.010166v237.984751c0 7.999667-6.015749 11.988834-12.010166 11.988834z" fill="#465961" p-id="5197"></path><path d="M839.965001 528.020666H183.992334c-2.00525 0-5.994417 0-7.999667-4.0105-2.00525-1.983917-3.989167-5.973084-2.00525-9.983584 14.015416-76.0075 58.002917-145.99925 118.011083-196.0025A342.300404 342.300404 0 0 1 511.978668 238.027416c79.996667 0 157.988084 28.0095 220.001499 79.996666 59.986834 50.00325 103.995667 119.995 117.968418 196.0025 2.026582 3.989167 0 7.999667-1.983917 9.983584-2.00525 4.0105-5.994417 4.0105-7.999667 4.0105z m-18.004583 141.98875c2.00525-2.00525 2.00525-3.989167 2.00525-5.973084 0 1.983917 0 3.967835-2.00525 5.973084zM303.987334 832.008c28.0095 5.994417 52.0085 15.999333 74.00225 26.004249 58.002917 23.999 99.985167 41.982251 155.982834 0v-2.005249c60.008166-42.003583 110.011416-26.00425 159.993333-5.994417-1.983917 1.983917-1.983917 3.989167-3.989167 3.989167-5.994417 4.0105-7.999667 12.010166-4.010499 15.999333a11.007541 11.007541 0 0 0 10.004916 5.994417c2.00525 0 4.0105 0 5.994417-1.983917C777.99425 824.008333 831.965335 744.011666 849.969918 656.015333c2.00525-4.0105 0-7.999667-2.00525-10.004917-2.00525-3.989167-5.994417-3.989167-7.999667-3.989167H183.992334c-2.00525 0-5.994417 0-7.999667 3.989167-2.00525 2.00525-3.989167 5.994417-2.00525 10.026249 14.015416 75.964835 55.997667 145.977918 118.011083 195.959835a10.580892 10.580892 0 0 0 15.999333-1.983917 10.580892 10.580892 0 0 0-2.005249-15.999334L303.987334 832.008z" fill="#F74933" p-id="5198"></path><path d="M867.974501 664.014999H155.982834c-43.987501 0-79.996667-34.003917-79.996667-77.991417a80.231324 80.231324 0 0 1 79.996667-79.996666h711.991667a80.231324 80.231324 0 0 1 79.996667 79.996666c0 43.987501-36.009166 77.991417-79.996667 77.991417z" fill="#FFC338" p-id="5199"></path><path d="M469.975084 949.99775c-35.987834 0-58.002917-35.987834-93.99075-50.00325-76.0075-29.993417-175.992667-19.9885-321.991917 55.997667v50.00325c2.00525 4.0105 10.004916 5.994417 13.994084 4.010499 145.99925-87.996333 228.001167-52.0085 302.003416-22.015082 31.998667 14.015416 63.997333 28.0095 97.979918 28.009499 26.025582 0 52.0085-7.999667 82.001916-31.998666 55.997667-39.998333 100.0065-20.009833 156.004167 3.989167 37.993084 15.999333 83.985834 36.009166 139.9835 36.009166 36.009166 0 77.991417-7.999667 124.0055-29.993417v-31.998667c-38.014416 11.988834-70.013083-34.003917-100.0065-34.003916-61.992084 0-103.995667-18.004583-145.99925-36.009166-57.981584-23.999-107.984834-13.994084-167.993 23.999-31.998667 23.999-57.981584 34.003917-85.969751 34.003916z" fill="#83DEFF" p-id="5200"></path><path d="M965.954419 892.016166l4.010499 69.970418c-38.014416 12.010166-71.997 18.025916-102.011749 18.025915-59.986834 0-107.984834-20.009833-149.967085-36.009166-58.024249-23.999-104.016999-43.987501-164.003833-3.989167-31.998667 21.972418-62.013416 31.998667-90.001584 31.998667-36.009166 0-69.99175-14.015416-103.995666-28.0095-76.0075-29.993417-159.993334-63.997333-305.992584 12.010166l2.00525-71.997c145.99925-111.995334 239.99-55.997667 313.99225-23.999 59.986834 23.999 105.979584 45.99275 165.987751 1.983918 71.997-45.99275 135.994334-27.988167 195.981167-1.983918 63.997333 19.9885 134.010416 51.987167 234.016916 31.998667z" fill="#2ECCFB" p-id="5201"></path><path d="M55.997667 856.007v27.988167c145.99925-71.997 237.984751-35.987834 313.99225-7.999667 59.986834 23.999 107.984834 44.008833 169.976918 0 70.013083-47.998 127.994667-23.999 188.002833 0 61.992084 26.025582 132.005166 54.013749 237.984751 15.999334l-1.983918-37.971752c-108.006166 43.987501-180.003167 13.972751-241.99525-14.015416-58.002917-23.999-114.000583-47.998-183.992334 0-60.008166 45.99275-106.000917 26.00425-164.003833 2.00525-75.986167-31.998667-167.993-70.013083-317.981417 13.994084z" fill="#2EB5FB" p-id="5202"></path></svg>