<?xml version="1.0" standalone="no"?><!DOCTYPE svg PUBLIC "-//W3C//DTD SVG 1.1//EN" "http://www.w3.org/Graphics/SVG/1.1/DTD/svg11.dtd"><svg t="1747839218861" class="icon" viewBox="0 0 1024 1024" version="1.1" xmlns="http://www.w3.org/2000/svg" p-id="41188" xmlns:xlink="http://www.w3.org/1999/xlink" width="200" height="200"><path d="M338.144 161.056l30.304-11.52 292.992 770.016-30.304 11.52z" fill="#5A5F63" p-id="41189"></path><path d="M243.072 479.04c12.576 80.672-211.968 98.112-232.48 15.808l232.48-15.808z" fill="#D03F3F" p-id="41190"></path><path d="M454.496 421.856c23.68 86.048-180.32 141.76-211.392 57.184l211.392-57.184z" fill="#BBC7D1" p-id="41191"></path><path d="M454.496 421.856l195.936-97.792c33.12 84.288-156.256 178.24-195.936 97.792z" fill="#D03F3F" p-id="41192"></path><path d="M650.432 324.064l183.968-142.624c45.856 86.816-132.96 222.144-183.968 142.624z" fill="#BBC7D1" p-id="41193"></path><path d="M293.92 0C247.84 196.224 161.088 383.872 10.72 494.848a1226.624 1226.624 0 0 0 232.288-15.808C289.888 352.864 300.512 176.192 293.92 0z" fill="#E24B4B" p-id="41194"></path><path d="M293.92 0c6.592 176.192-4.032 352.864-50.88 479.04a1105.6 1105.6 0 0 0 211.488-57.088C412.672 312.096 353.312 156.096 293.92 0z" fill="#DEE4E9" p-id="41195"></path><path d="M293.92 0l160.576 421.952a1108.032 1108.032 0 0 0 195.936-97.92C531.552 260.928 406.144 136 293.92 0z" fill="#E24B4B" p-id="41196"></path><path d="M293.92 0c112.224 136 237.632 260.928 356.512 324.032a1226.88 1226.88 0 0 0 184.064-142.56C648.352 198.464 458.816 115.968 293.92 0z" fill="#DEE4E9" p-id="41197"></path><path d="M725.664 767.104l130.592-241.12a19.2 19.2 0 0 0-26.112 7.552c-32.544-17.952-151.616 197.76-119.104 215.744-5.408-53.824-582.72 4.32-577.312 58.144a19.2 19.2 0 0 0-17.184 21.056l609.12-61.376z" fill="#65B1EF" p-id="41198"></path><path d="M724.832 785.44L137.504 844.576a18.144 18.144 0 1 1-3.616-36.128l577.856-58.176 119.392-216.224a18.144 18.144 0 1 1 31.776 17.536l-123.968 224.544a18.24 18.24 0 0 1-14.112 9.312z" fill="#89664C" p-id="41199"></path><path d="M166.112 936.736a12.8 12.8 0 0 1-5.6-17.216c56.736-111.424 159.52-191.072 274.976-213.024 110.368-20.992 221.056 11.648 311.808 91.872 2.944 2.56 7.328 2.624 9.728 0.224 1.952-1.92 3.968-3.648 6.048-5.248a43.264 43.264 0 0 1 44.064-5.056c15.872 6.88 26.816 21.728 28.512 38.72a44.128 44.128 0 0 1-39.456 48.288 42.24 42.24 0 0 1-37.696-15.456 12.8 12.8 0 1 1 19.488-16.576c4.416 5.184 9.216 7.232 15.616 6.56a18.496 18.496 0 0 0 16.512-20.224 21.952 21.952 0 0 0-13.216-17.792 18.048 18.048 0 0 0-18.304 1.888c-1.248 0.96-2.496 2.016-3.68 3.168-12.096 11.872-31.68 12.16-44.672 0.672-84.672-74.88-187.808-105.312-290.048-85.92-107.744 20.48-203.776 95.04-256.928 199.488a12.672 12.672 0 0 1-17.152 5.632z" fill="#DEE4E9" p-id="41200"></path><path d="M1024 1024v-155.84c-424.096 1.888-797.088 40.992-1024 99.968V1024h1024z" fill="#FFD93B" p-id="41201"></path></svg>