<?xml version="1.0" standalone="no"?><!DOCTYPE svg PUBLIC "-//W3C//DTD SVG 1.1//EN" "http://www.w3.org/Graphics/SVG/1.1/DTD/svg11.dtd"><svg t="1747839612995" class="icon" viewBox="0 0 1024 1024" version="1.1" xmlns="http://www.w3.org/2000/svg" p-id="46889" xmlns:xlink="http://www.w3.org/1999/xlink" width="200" height="200"><path d="M960 512c0 6.9-0.2 13.7-0.5 20.5-1.2 26.7-4.7 52.7-10.4 77.9-16.2 72.2-49.8 137.8-96.2 192.2-37.9 44.5-84.3 81.4-136.6 108.2C655 942.3 585.6 960 512 960c-155.7 0-292.9-79.5-373.2-200-17-25.6-31.5-53-43.1-82-4.4-11.1-8.5-22.5-12-34-10.4-33.6-16.8-68.8-19-105.3-0.1-2-0.2-4.1-0.3-6.1-0.3-6.8-0.5-13.7-0.5-20.5 0-12.5 0.5-25 1.5-37.3C84.5 244.8 277.1 64 512 64c63.6 0 124.1 13.2 178.9 37.2 26.9 11.7 52.4 26 76.2 42.5C882.2 223.6 958.1 356 960 506.2v5.8z" fill="#A4E7FF" p-id="46890"></path><path d="M960 512c0 6.9-0.2 13.7-0.5 20.5-1.2 26.7-4.7 52.7-10.4 77.9-16.2 72.2-49.8 137.8-96.2 192.2-37.9 44.5-84.3 81.4-136.6 108.2C655 942.3 585.6 960 512 960c-155.7 0-292.9-79.5-373.2-200-17-25.6-31.5-53-43.1-82-4.4-11.1-8.5-22.5-12-34-10.4-33.6-16.8-68.8-19-105.3 22.3-5.1 36.9-15.8 52.1-27 21.4-15.7 43.6-32 87.4-32s66 16.2 87.4 32c21 15.4 40.9 30 81.5 30s60.5-14.6 81.5-30c21.4-15.7 43.5-32 87.4-32s66 16.2 87.4 32c21 15.4 40.9 30 81.5 30s60.5-14.6 81.5-30c21.4-15.7 43.5-32 87.4-32 38.8 0 60.6 12.7 79.9 26.5 0.3 1.9 0.3 3.9 0.3 5.8z" fill="#47CDFF" p-id="46891"></path><path d="M949.1 610.5c-5.6 24.9-13.3 49.1-22.8 72.3-7 17-15 33.4-24 49.3-14.2 25.2-30.8 48.8-49.4 70.7-37.9 44.3-84.3 81.2-136.6 108C655 942.3 585.6 960 512 960c-155.7 0-292.9-79.5-373.2-200-17-25.6-31.5-53-43.1-82-4.4-11.1-8.5-22.5-12-34 12.5-5.6 22.7-13 33.1-20.7 21.4-15.7 43.6-32 87.4-32s66 16.2 87.4 32c21 15.4 40.9 30 81.5 30s60.5-14.6 81.5-30c21.4-15.7 43.5-32 87.4-32s66 16.2 87.4 32c14.7 10.8 28.8 21.1 49.7 26.4 9.1 2.3 19.5 3.6 31.8 3.6 30 0 48.7-8 64.9-18.4 5-3.2 9.8-6.7 14.7-10.2 0.6-0.5 1.3-0.9 1.9-1.4 14.1-10.3 28.4-20.9 49.1-26.9 10.8-3.2 23.3-5.1 38.3-5.1 32 0 52.4 8.5 69.3 19.2z" fill="#4779FC" p-id="46892"></path><path d="M335 230.9m-56.9 0a56.9 56.9 0 1 0 113.8 0 56.9 56.9 0 1 0-113.8 0Z" fill="#FFF9BB" p-id="46893"></path><path d="M708.8 357.7m-38.3 0a38.3 38.3 0 1 0 76.6 0 38.3 38.3 0 1 0-76.6 0Z" fill="#C48D87" p-id="46894"></path><path d="M761.8 712c15.2-20.7 45.3-294-45-383.3-3-6.1-0.4-13.5 5.7-16.5 6.2-3 13.5-0.5 16.5 5.7C824.6 385.2 854.7 588 839.9 712h-78.1z" fill="#A44E3E" p-id="46895"></path><path d="M752.6 322.4m-38.3 0a38.3 38.3 0 1 0 76.6 0 38.3 38.3 0 1 0-76.6 0Z" fill="#C48D87" p-id="46896"></path><path d="M742.8 287.5l-147 230.2c-33.6-47.5-37.2-112.5-3.9-164.6 33.2-52 93.7-76.1 150.9-65.6z" fill="#43AF3E" p-id="46897"></path><path d="M877.3 147.3L704.7 314.8c-19.2-47.5-9.1-103.9 29.9-141.8 39.1-37.9 95.8-46.3 142.7-25.7z" fill="#43AF3E" p-id="46898"></path><path d="M743.5 304.2l-239.6 21.1c15.1-49 58.5-86.4 112.7-91.1 54.2-4.8 103.5 24.4 126.9 70z" fill="#58C652" p-id="46899"></path><path d="M729.5 284.9L543.3 183.4c35-28.6 85.2-34.8 127.3-11.9 42.1 23 64 68.6 58.9 113.4z" fill="#6ADB61" p-id="46900"></path><path d="M960.3 346.7l-271.4-31.4c28-51 84.9-82.7 146.3-75.6 61.3 7.1 109.5 51 125.1 107z" fill="#349B2F" p-id="46901"></path><path d="M843.4 632.5c-16.4-4.5-34.1-7.2-52.7-7.8-2.7-0.1-5.4-0.1-8.1-0.1-1.9 0-3.8 0-5.8 0.1-36.9 0.9-70.7 10.1-97.5 25.1-10.7 6-20.3 12.9-28.6 20.5-4-0.5-8.1-0.8-12.2-0.8-41.7 0-75.6 27.2-75.6 60.7h340.4c8.5-15.2 16.2-31 22.9-47.3-18.2-22.8-47.5-40.7-82.8-50.4z" fill="#FFC0A4" p-id="46902"></path></svg>