<?xml version="1.0" standalone="no"?><!DOCTYPE svg PUBLIC "-//W3C//DTD SVG 1.1//EN" "http://www.w3.org/Graphics/SVG/1.1/DTD/svg11.dtd"><svg t="1744906090189" class="icon" viewBox="0 0 1032 1024" version="1.1" xmlns="http://www.w3.org/2000/svg" p-id="1230" xmlns:xlink="http://www.w3.org/1999/xlink" width="201.5625" height="200"><path d="M764.315 938.4245H456.1325c-94.536 0-169.8525-77.049-169.8525-169.8705v-50.76c0-94.5585 77.013-169.893 169.8525-169.893h308.1825c94.5585 0 169.911 77.0535 169.911 169.893v50.76c0 92.8215-77.0715 169.8705-169.911 169.8705z" fill="#6799FF" p-id="1231"></path><path d="M682.7795 436.6385H280.0385c-14.013 0-24.5115-10.521-24.5115-24.5115 0-14.013 10.4625-24.534 24.5115-24.534h402.741c14.031 0 24.5475 10.4985 24.5475 24.534 0 13.9545-10.5165 24.5115-24.5475 24.5115z m0 157.59H280.0385c-14.013 0-24.5115-10.4985-24.5115-24.5475 0-13.995 10.4625-24.5115 24.5115-24.5115h402.741c14.031 0 24.5475 10.4805 24.5475 24.5115 0 14.049-10.5165 24.5475-24.5475 24.5475z m0 140.13H280.0385c-14.013 0-24.5115-10.557-24.5115-24.552 0-14.0085 10.4625-24.5295 24.5115-24.5295h402.741c14.031 0 24.5475 10.44 24.5475 24.5295 0 13.995-10.5165 24.552-24.5475 24.552z" fill="#073A77" p-id="1232"></path><path d="M700.325 962H262.5335C171.449 962 97.91 888.4385 97.91 797.399V307.07c0-91.062 73.5795-164.601 164.6235-164.601 13.9905 0 24.5295 10.4985 24.5295 24.552 0 14.013-10.4985 24.5295-24.5295 24.5295-63.0585 0-115.5555 52.56-115.5555 115.5555V797.435c0 63.018 52.497 115.614 115.5555 115.614h437.7915c63.018 0 115.5555-52.596 115.5555-115.614V307.106c0-63-52.5375-115.5555-115.5555-115.5555-13.9905 0-24.5295-10.4805-24.5295-24.5295 0-14.013 10.4985-24.552 24.5295-24.552 91.026 0 164.601 73.6155 164.601 164.601v490.329C866.6585 888.4385 791.3465 962 700.325 962z" fill="#073A77" p-id="1233"></path><path d="M596.987 249.263H367.568c-24.4935 0-45.4905-21.0015-45.4905-45.513V123.2225c0-24.552 21.0375-45.531 45.4905-45.531h229.4145c24.5115 0 45.531 21.06 45.531 45.531V203.75c-0.018 24.5115-21.015 45.513-45.5265 45.513zM371.1005 200.2355h222.39V126.719h-222.39v73.5165z" fill="#073A77" p-id="1234"></path></svg>