<?xml version="1.0" standalone="no"?><!DOCTYPE svg PUBLIC "-//W3C//DTD SVG 1.1//EN" "http://www.w3.org/Graphics/SVG/1.1/DTD/svg11.dtd"><svg t="1745463971459" class="icon" viewBox="0 0 1028 1024" version="1.1" xmlns="http://www.w3.org/2000/svg" p-id="33667" xmlns:xlink="http://www.w3.org/1999/xlink" width="200.78125" height="200"><path d="M938.717397 204.966027 428.349997 205.054575c-48.391374 0.597698-87.463092 39.912922-87.463092 88.437118l0 509.260552c0.088548 48.479922 40.200703 87.839421 88.547803 88.437118l322.889564 0c0 0 126.180619 126.180619 126.335578 126.335578 8.655548 8.655548 22.646101 8.655548 31.301648 0 4.228158-4.228158 6.397579-10.116586 6.486127-15.650824l0-110.684754 22.136951 0c48.85625 0 88.459255-39.580868 88.547803-88.414981L1027.132379 293.491693C1027.132379 244.635443 987.551511 205.010301 938.717397 204.966027zM938.584575 846.915462l-44.517408 0.044274c-5.578512 0.066411-11.157023 2.191558-15.407318 6.441853-4.073199 4.073199-6.24262 10.315819-6.486127 15.650824l0 79.383105-101.520056-101.520056L429.434708 846.915462c-24.439194 0-44.273902-19.834708-44.273902-44.273902l0-509.149868c0-24.439194 19.834708-44.273902 44.273902-44.273902l509.149868 0c24.439194 0 44.273902 19.834708 44.273902 44.273902l0 509.149868C982.858477 827.102891 963.023769 846.915462 938.584575 846.915462z" p-id="33668"></path><path d="M761.488969 94.259136c0-48.524196-39.093855-87.839421-87.463092-88.459255L97.247625 5.711333c-48.834113 0.066411-88.414981 39.669416-88.414981 88.547803l0 575.693542c0.088548 48.834113 39.691553 88.414981 88.547803 88.414981l22.136951 0 0 110.684754c0.088548 5.534238 2.257969 11.422667 6.486127 15.650824 8.655548 8.655548 22.646101 8.655548 31.301648 0 0.132822-0.110685 90.030979-90.030979 132.777431-132.777431 4.028925-4.006788 6.5304-9.563163 6.5304-15.672961 0-12.219597-9.917354-22.136951-22.136951-22.136951-6.087661 0-11.621899 2.479338-15.650824 6.486127l-95.03393 95.011793 0-79.360968c-0.243506-5.335005-2.412928-11.577625-6.486127-15.650824-4.272431-4.272431-9.828806-6.397579-15.407318-6.441853l-44.517408-0.022137c-24.439194 0-44.273902-19.834708-44.273902-44.273902l0-575.56072c0-24.439194 19.834708-44.273902 44.273902-44.273902l575.56072 0c24.439194 0 44.273902 19.834708 44.273902 44.273902l0 44.273902c0 12.219597 9.895217 22.136951 22.136951 22.136951 12.219597 0 22.136951-9.917354 22.136951-22.136951L761.488969 94.259136z" p-id="33669"></path></svg>