<?xml version="1.0" standalone="no"?><!DOCTYPE svg PUBLIC "-//W3C//DTD SVG 1.1//EN" "http://www.w3.org/Graphics/SVG/1.1/DTD/svg11.dtd"><svg t="1744985018449" class="icon" viewBox="0 0 2520 1024" version="1.1" xmlns="http://www.w3.org/2000/svg" p-id="19609" xmlns:xlink="http://www.w3.org/1999/xlink" width="492.1875" height="200"><path d="M472.615385 0h2048c0 567.138462-456.861538 1024-1024 1024H0V472.615385c0-259.938462 212.676923-472.615385 472.615385-472.615385z" fill="#FD6260" p-id="19610"></path><path d="M590.769231 535.630769c-23.630769 15.753846-47.261538 23.630769-70.892308 39.384616v228.430769c0 47.261538-23.630769 63.015385-70.892308 63.015384h-70.892307l-7.876923-55.138461c23.630769 0 47.261538 7.876923 63.015384 7.876923 23.630769 0 31.507692-7.876923 31.507693-31.507692V590.769231c-47.261538 15.753846-78.769231 31.507692-102.4 31.507692l-15.753847-55.138461c39.384615-7.876923 78.769231-15.753846 110.276923-31.507693V354.461538H354.461538v-55.138461h102.4V157.538462h55.138462v149.661538h78.769231v55.138462h-78.769231v157.538461c31.507692-15.753846 55.138462-23.630769 70.892308-31.507692v47.261538z m126.030769 307.2v39.384616h-55.138462V417.476923c-15.753846 23.630769-39.384615 55.138462-63.015384 78.769231l-15.753846-55.138462C645.907692 354.461538 693.169231 259.938462 716.8 157.538462l55.138462 7.876923c-7.876923 39.384615-23.630769 78.769231-47.261539 126.030769H866.461538l-47.261538-118.153846 63.015385-15.753846c15.753846 47.261538 31.507692 86.646154 39.384615 126.030769l-23.630769 7.876923h149.661538v55.138461h-133.907692v110.276923h118.153846v55.138462h-118.153846v110.276923h118.153846v55.138462h-118.153846V787.692308h149.661538v55.138461H716.8z m141.784615-496.246154H716.8v110.276923h141.784615V346.584615zM716.8 512v110.276923h141.784615V512H716.8z m0 157.538462V787.692308h141.784615V669.538462H716.8zM1165.784615 378.092308h220.553847c15.753846-23.630769 23.630769-47.261538 31.507692-63.015385l55.138461 7.876923c0 7.876923-7.876923 15.753846-7.876923 23.630769l-7.876923 23.63077h385.969231v55.138461h-409.6c-23.630769 39.384615-55.138462 78.769231-86.646154 118.153846v330.83077h-55.138461V598.646154c-31.507692 31.507692-70.892308 55.138462-110.276923 86.646154l-39.384616-47.261539c94.523077-63.015385 165.415385-133.907692 220.553846-212.676923h-189.046154v-47.261538z m-7.876923-165.415385H1339.076923V157.538462h55.138462v55.138461h204.8V157.538462h55.138461v55.138461h181.169231v55.138462H1654.153846v55.138461h-55.138461v-55.138461h-204.8v55.138461H1339.076923v-55.138461h-181.169231v-55.138462z m456.861539 393.846154c23.630769-15.753846 55.138462-31.507692 94.523077-63.015385h-259.938462v-55.138461h338.707692v39.384615c-39.384615 31.507692-78.769231 63.015385-126.030769 86.646154v31.507692h173.292308V708.923077h-173.292308v102.4c0 39.384615-23.630769 63.015385-63.015384 63.015385h-94.523077l-7.876923-55.138462h86.646153c15.753846 0 31.507692-7.876923 31.507693-31.507692V708.923077h-220.553846v-55.138462h220.553846v-47.261538z" fill="#FFFFFF" p-id="19611"></path></svg>