<?xml version="1.0" standalone="no"?><!DOCTYPE svg PUBLIC "-//W3C//DTD SVG 1.1//EN" "http://www.w3.org/Graphics/SVG/1.1/DTD/svg11.dtd"><svg t="1744984854761" class="icon" viewBox="0 0 1024 1024" version="1.1" xmlns="http://www.w3.org/2000/svg" p-id="16833" xmlns:xlink="http://www.w3.org/1999/xlink" width="200" height="200"><path d="M489.984 921.6c-45.056-0.512-186.88 0-273.408-108.032-7.168-8.704-78.336-99.84-59.904-203.264 8.704-48.128 29.696-59.904 40.96-112.64 14.848-68.096-2.56-130.048-20.48-173.056 16.896 6.144 55.808 22.016 87.552 61.44 27.648 34.304 36.352 69.12 39.936 86.528 21.504-12.8 55.296-36.864 82.432-76.288 56.832-83.456 38.4-170.496 33.28-190.464-11.776-47.104-35.84-81.92-54.272-103.424 33.792 7.168 127.488 30.72 205.312 109.056 83.968 84.992 96.768 179.712 99.328 209.92 5.12-3.584 31.744-22.528 37.888-58.368 7.68-46.08-25.6-78.336-28.16-80.896 20.992 11.264 149.504 83.968 182.272 232.448 6.144 27.136 30.208 152.576-61.44 267.264-110.08 138.24-292.864 139.776-311.296 139.776z" fill="#FF2F1F" p-id="16834"></path><path d="M504.832 921.6c-7.168 0-62.464 0.512-97.28-41.472-4.608-5.632-25.088-30.72-24.064-62.976 1.024-22.016 11.264-30.208 17.408-57.856 5.12-24.576 3.072-46.08 0.512-60.416 3.584 1.024 18.432 4.608 28.672 18.432 10.24 13.824 9.216 28.672 9.216 32.256 11.264-8.192 24.064-20.48 34.304-37.888 6.144-10.752 19.456-34.304 16.384-65.024-1.536-14.336-6.144-25.6-9.216-32.256 12.288 4.608 34.304 14.336 53.76 35.328 29.696 31.744 34.304 68.096 35.328 80.384 2.56-2.048 11.264-9.216 13.312-22.528 3.072-17.408-8.704-29.696-10.24-31.232 7.68 4.608 53.248 32.256 64.512 89.088 2.048 10.24 10.752 58.368-22.016 102.4-38.912 53.248-103.936 53.76-110.592 53.76z" fill="#FF8B00" p-id="16835"></path></svg>