<?xml version="1.0" standalone="no"?><!DOCTYPE svg PUBLIC "-//W3C//DTD SVG 1.1//EN" "http://www.w3.org/Graphics/SVG/1.1/DTD/svg11.dtd"><svg t="1744904058163" class="icon" viewBox="0 0 1024 1024" version="1.1" xmlns="http://www.w3.org/2000/svg" p-id="2519" xmlns:xlink="http://www.w3.org/1999/xlink" width="200" height="200"><path d="M157.4 481.8H23.2c-1.6 0-3-1.4-3-3v-78.9c0-1.6 1.4-3 3-3h134.2c1.6 0 3 1.4 3 3v78.9c0 1.7-1.3 3-3 3z" fill="#FFFFFF" p-id="2520"></path><path d="M120 502H60.6C27.2 502 0 474.8 0 441.4v-4.1c0-33.4 27.2-60.6 60.6-60.6H120c33.4 0 60.6 27.2 60.6 60.6v4.1c0 33.4-27.2 60.6-60.6 60.6z m-59.4-84.9c-11.1 0-20.2 9.1-20.2 20.2v4.1c0 11.1 9.1 20.2 20.2 20.2H120c11.1 0 20.2-9.1 20.2-20.2v-4.1c0-11.1-9.1-20.2-20.2-20.2H60.6z" fill="#403F3F" p-id="2521"></path><path d="M1000.8 481.8H866.6c-1.7 0-3-1.4-3-3v-78.9c0-1.6 1.3-3 3-3h134.2c1.6 0 3 1.4 3 3v78.9c0 1.7-1.4 3-3 3z" fill="#FFFFFF" p-id="2522"></path><path d="M963.4 502H904c-33.4 0-60.6-27.2-60.6-60.6v-4.1c0-33.4 27.2-60.6 60.6-60.6h59.4c33.4 0 60.6 27.2 60.6 60.6v4.1c0 33.4-27.2 60.6-60.6 60.6zM904 417.1c-11.1 0-20.2 9.1-20.2 20.2v4.1c0 11.1 9.1 20.2 20.2 20.2h59.4c11.1 0 20.2-9.1 20.2-20.2v-4.1c0-11.1-9.1-20.2-20.2-20.2H904z" fill="#403F3F" p-id="2523"></path><path d="M908.9 544.4H115.1L186.2 210c3.8-17.9 19.6-30.7 38-30.7h575.6c18.3 0 34.2 12.8 38 30.7l71.1 334.4z" fill="#33ABE3" p-id="2524"></path><path d="M933.8 564.6H90.2l76.3-358.8c5.8-27.1 30.1-46.8 57.8-46.8h575.6c27.7 0 52 19.7 57.8 46.8l76.1 358.8z m-793.7-40.5h743.8l-65.9-310c-1.8-8.5-9.5-14.7-18.2-14.7H224.2c-8.7 0-16.4 6.2-18.2 14.8l-65.9 309.9z" fill="#403F3F" p-id="2525"></path><path d="M844.2 615.6H179.8l71.1-334.4c3.8-17.9 19.6-30.7 38-30.7h446.2c18.3 0 34.2 12.8 38 30.7l71.1 334.4z" fill="#FFFFFF" p-id="2526"></path><path d="M844.2 635.9H179.8c-6.1 0-11.9-2.8-15.7-7.5-3.8-4.8-5.3-11-4.1-16.9L231.2 277c5.8-27.1 30.1-46.8 57.8-46.8h446.2c27.7 0 52 19.7 57.8 46.7l71.1 334.4c1.3 6-0.2 12.2-4.1 16.9-4 4.9-9.7 7.7-15.8 7.7z m-639.4-40.5h614.4l-65.9-310c-1.8-8.5-9.5-14.7-18.2-14.7H288.9c-8.7 0-16.4 6.2-18.2 14.8l-65.9 309.9z" fill="#403F3F" p-id="2527"></path><path d="M282.5 1003.8H87.9c-1.7 0-3-1.3-3-3V839.6c0-1.7 1.3-3 3-3h194.6c1.7 0 3 1.3 3 3v161.2c0 1.6-1.3 3-3 3z" fill="#33ABE3" p-id="2528"></path><path d="M245.1 1024H125.3c-33.4 0-60.6-27.2-60.6-60.6v-86.3c0-33.4 27.2-60.6 60.6-60.6h119.8c33.4 0 60.6 27.2 60.6 60.6v86.3c0 33.4-27.2 60.6-60.6 60.6zM125.3 856.8c-11.1 0-20.2 9.1-20.2 20.2v86.3c0 11.1 9.1 20.2 20.2 20.2h119.8c11.1 0 20.2-9.1 20.2-20.2V877c0-11.1-9.1-20.2-20.2-20.2H125.3z" fill="#403F3F" p-id="2529"></path><path d="M936.1 1003.8H741.5c-1.7 0-3-1.3-3-3V839.6c0-1.7 1.3-3 3-3h194.6c1.7 0 3 1.3 3 3v161.2c0 1.6-1.4 3-3 3z" fill="#33ABE3" p-id="2530"></path><path d="M898.7 1024H778.9c-33.4 0-60.6-27.2-60.6-60.6v-86.3c0-33.4 27.2-60.6 60.6-60.6h119.8c33.4 0 60.6 27.2 60.6 60.6v86.3c0 33.4-27.2 60.6-60.6 60.6zM778.9 856.8c-11.1 0-20.2 9.1-20.2 20.2v86.3c0 11.1 9.1 20.2 20.2 20.2h119.8c11.1 0 20.2-9.1 20.2-20.2V877c0-11.1-9.1-20.2-20.2-20.2H778.9z" fill="#403F3F" p-id="2531"></path><path d="M939.1 885.2H84.9c-21.4 0-38.8-17.4-38.8-38.8L20.2 583.2c0-21.4 17.4-38.8 38.8-38.8h906c21.4 0 38.8 17.4 38.8 38.8l-25.9 263.2c0 21.4-17.4 38.8-38.8 38.8z" fill="#33ABE3" p-id="2532"></path><path d="M939.1 905.4H84.9c-32.2 0-58.4-25.9-59-57.9L0 583.2c0-32.6 26.5-59 59-59h906c32.6 0 59 26.5 59 59l-0.1 2-25.8 262.3c-0.6 32-26.8 57.9-59 57.9z m-898.7-323l25.9 264c0 10.3 8.4 18.6 18.6 18.6h854.2c10.3 0 18.6-8.4 18.6-18.6l0.1-2 25.8-262c-0.4-9.9-8.6-17.8-18.6-17.8H59c-10 0-18.1 7.9-18.6 17.8z" fill="#403F3F" p-id="2533"></path><path d="M362.1 637.1h299.8M661.9 657.3H362.1c-11.2 0-20.2-9.1-20.2-20.2s9.1-20.2 20.2-20.2h299.8c11.2 0 20.2 9.1 20.2 20.2s-9 20.2-20.2 20.2zM362.1 714.8h299.8M661.9 735H362.1c-11.2 0-20.2-9.1-20.2-20.2s9.1-20.2 20.2-20.2h299.8c11.2 0 20.2 9.1 20.2 20.2s-9 20.2-20.2 20.2z" fill="#FFFFFF" p-id="2534"></path><path d="M362.1 792.4h299.8M661.9 812.6H362.1c-11.2 0-20.2-9.1-20.2-20.2s9.1-20.2 20.2-20.2h299.8c11.2 0 20.2 9.1 20.2 20.2s-9 20.2-20.2 20.2z" fill="#FFFFFF" p-id="2535"></path><path d="M282.5 766.9h-166c-1.6 0-3-1.3-3-3v-98.3c0-1.7 1.4-3 3-3h166c1.6 0 3 1.3 3 3v98.3c0 1.7-1.3 3-3 3z" fill="#FFFFFF" p-id="2536"></path><path d="M245.1 787.1h-91.2c-33.4 0-60.6-27.2-60.6-60.6V703c0-33.4 27.2-60.6 60.6-60.6h91.2c33.4 0 60.6 27.2 60.6 60.6v23.5c0 33.4-27.2 60.6-60.6 60.6z m-91.2-104.3c-11.1 0-20.2 9.1-20.2 20.2v23.5c0 11.1 9.1 20.2 20.2 20.2h91.2c11.1 0 20.2-9.1 20.2-20.2V703c0-11.1-9.1-20.2-20.2-20.2h-91.2z" fill="#403F3F" p-id="2537"></path><path d="M907.5 766.9h-166c-1.7 0-3-1.3-3-3v-98.3c0-1.7 1.3-3 3-3h166c1.6 0 3 1.3 3 3v98.3c0 1.7-1.3 3-3 3z" fill="#FFFFFF" p-id="2538"></path><path d="M870.1 787.1h-91.2c-33.4 0-60.6-27.2-60.6-60.6V703c0-33.4 27.2-60.6 60.6-60.6h91.2c33.4 0 60.6 27.2 60.6 60.6v23.5c0 33.4-27.2 60.6-60.6 60.6z m-91.2-104.3c-11.1 0-20.2 9.1-20.2 20.2v23.5c0 11.1 9.1 20.2 20.2 20.2h91.2c11.1 0 20.2-9.1 20.2-20.2V703c0-11.1-9.1-20.2-20.2-20.2h-91.2z" fill="#403F3F" p-id="2539"></path></svg>