<?xml version="1.0" standalone="no"?><!DOCTYPE svg PUBLIC "-//W3C//DTD SVG 1.1//EN" "http://www.w3.org/Graphics/SVG/1.1/DTD/svg11.dtd"><svg t="1744904075751" class="icon" viewBox="0 0 1024 1024" version="1.1" xmlns="http://www.w3.org/2000/svg" p-id="2685" xmlns:xlink="http://www.w3.org/1999/xlink" width="200" height="200"><path d="M824.7 917.9V237c0-1.7-1.3-3-3-3H330.1c-1.7 0-3 1.3-3 3v680.9h497.6z" fill="#33ABE3" p-id="2686"></path><path d="M844.9 938.1h-538V274.4c0-33.4 27.2-60.6 60.6-60.6h416.8c33.4 0 60.6 27.2 60.6 60.6v663.7z m-497.6-40.5h457.2V274.4c0-11.1-9.1-20.2-20.2-20.2H367.5c-11.1 0-20.2 9.1-20.2 20.2v623.2z" fill="#403F3F" p-id="2687"></path><path d="M211.4 861.5H839V363.8H211.4c-1.7 0-3 1.3-3 3v491.6c0 1.7 1.3 3.1 3 3.1z" fill="#FFFFFF" p-id="2688"></path><path d="M859.3 881.7H248.8c-33.4 0-60.6-27.2-60.6-60.6V404.3c0-33.4 27.2-60.6 60.6-60.6h610.5v538zM248.8 384.1c-11.1 0-20.2 9.1-20.2 20.2V821c0 11.1 9.1 20.2 20.2 20.2h570.1V384.1H248.8z" fill="#403F3F" p-id="2689"></path><path d="M688.6 363.8H944c32.9 0 59.8 28 59.8 62.2s-26.9 62.2-59.8 62.2H756.8" fill="#FFFFFF" p-id="2690"></path><path d="M944 508.5H756.8V468H944c21.8 0 39.6-18.8 39.6-42s-17.8-42-39.6-42H688.6v-40.4H944c44.1 0 80 37 80 82.4s-35.9 82.5-80 82.5z" fill="#403F3F" p-id="2691"></path><path d="M752.2 488.2h189.2c33.2 0 60.3 28 60.3 62.2s-27.1 62.2-60.3 62.2H752.2" fill="#FFFFFF" p-id="2692"></path><path d="M941.5 632.9H752.2v-40.4h189.2c22.1 0 40.1-18.8 40.1-42s-18-42-40.1-42H752.2V468h189.2c44.4 0 80.5 37 80.5 82.4s-36.1 82.5-80.4 82.5z" fill="#403F3F" p-id="2693"></path><path d="M775 612.6h164.1c33.8 0 61.5 28 61.5 62.2S972.9 737 939.1 737H775" fill="#FFFFFF" p-id="2694"></path><path d="M939.1 757.3H775v-40.4h164.1c22.8 0 41.3-18.8 41.3-42s-18.5-42-41.3-42H775v-40.4h164.1c45 0 81.7 37 81.7 82.4s-36.7 82.4-81.7 82.4z" fill="#403F3F" p-id="2695"></path><path d="M775 737.1h104.3c32.9 0 59.8 28 59.8 62.2s-26.9 62.2-59.8 62.2H624" fill="#FFFFFF" p-id="2696"></path><path d="M879.3 881.7H624v-40.4h255.3c21.8 0 39.6-18.8 39.6-42s-17.8-42-39.6-42H775v-40.4h104.3c44.1 0 80 37 80 82.4s-35.9 82.4-80 82.4z" fill="#403F3F" p-id="2697"></path><path d="M327.1 976.4V788.2c0-2 1.6-3.6 3.6-3.6H448c2 0 3.6 1.6 3.6 3.6v188.3c0 2-1.6 3.6-3.6 3.6H330.7c-2-0.1-3.6-1.7-3.6-3.7z" fill="#33ABE3" p-id="2698"></path><path d="M403.4 1000.2h-28.2c-37.7 0-68.3-30.7-68.3-68.3v-99.2c0-37.7 30.7-68.3 68.3-68.3h28.2c37.7 0 68.3 30.7 68.3 68.3v99.2c0 37.7-30.7 68.3-68.3 68.3z m-28.2-195.4c-15.4 0-27.9 12.5-27.9 27.9v99.2c0 15.4 12.5 27.9 27.9 27.9h28.2c15.4 0 27.9-12.5 27.9-27.9v-99.2c0-15.4-12.5-27.9-27.9-27.9h-28.2z" fill="#403F3F" p-id="2699"></path><path d="M451.5 312.3v160.8c0 31.5-27.8 57-62.2 57-34.4 0-62.2-25.5-62.2-57V310.8" fill="#33ABE3" p-id="2700"></path><path d="M389.3 550.4c-45.4 0-82.4-34.6-82.4-77.2V310.8h40.4v162.3c0 20.3 18.8 36.8 42 36.8s42-16.5 42-36.8V312.3h40.4v160.8c0 42.6-37 77.3-82.4 77.3z" fill="#403F3F" p-id="2701"></path><path d="M700.3 976.4V806.9c0-2 1.6-3.6 3.6-3.6h117.3c2 0 3.6 1.6 3.6 3.6v169.5c0 2-1.6 3.6-3.6 3.6H703.9c-2 0-3.6-1.6-3.6-3.6z" fill="#33ABE3" p-id="2702"></path><path d="M776.6 1000.2h-28.2c-37.7 0-68.3-30.7-68.3-68.3v-80.4c0-37.7 30.7-68.3 68.3-68.3h28.2c37.7 0 68.3 30.7 68.3 68.3v80.4c0 37.7-30.7 68.3-68.3 68.3z m-28.2-176.7c-15.4 0-27.9 12.5-27.9 27.9v80.4c0 15.4 12.5 27.9 27.9 27.9h28.2c15.4 0 27.9-12.5 27.9-27.9v-80.4c0-15.4-12.5-27.9-27.9-27.9h-28.2z" fill="#403F3F" p-id="2703"></path><path d="M451.5 976.4V731.9c0-2 1.6-3.6 3.6-3.6h117.3c2 0 3.6 1.6 3.6 3.6v244.5c0 2-1.6 3.6-3.6 3.6H455.1c-2 0-3.6-1.6-3.6-3.6z" fill="#33ABE3" p-id="2704"></path><path d="M527.8 1000.2h-28.2c-37.7 0-68.3-30.7-68.3-68.3V776.5c0-37.7 30.7-68.3 68.3-68.3h28.2c37.7 0 68.3 30.7 68.3 68.3v155.4c0 37.7-30.7 68.3-68.3 68.3z m-28.2-251.6c-15.4 0-27.9 12.5-27.9 27.9v155.4c0 15.4 12.5 27.9 27.9 27.9h28.2c15.4 0 27.9-12.5 27.9-27.9V776.5c0-15.4-12.5-27.9-27.9-27.9h-28.2z" fill="#403F3F" p-id="2705"></path><path d="M575.9 976.4V731.9c0-2 1.6-3.6 3.6-3.6h117.3c2 0 3.6 1.6 3.6 3.6v244.5c0 2-1.6 3.6-3.6 3.6H579.5c-2 0-3.6-1.6-3.6-3.6z" fill="#33ABE3" p-id="2706"></path><path d="M652.2 1000.2H624c-37.7 0-68.3-30.7-68.3-68.3V776.5c0-37.7 30.7-68.3 68.3-68.3h28.2c37.7 0 68.3 30.7 68.3 68.3v155.4c0 37.7-30.7 68.3-68.3 68.3zM624 748.6c-15.4 0-27.9 12.5-27.9 27.9v155.4c0 15.4 12.5 27.9 27.9 27.9h28.2c15.4 0 27.9-12.5 27.9-27.9V776.5c0-15.4-12.5-27.9-27.9-27.9H624z" fill="#403F3F" p-id="2707"></path><path d="M208.4 327.9v581.9c0 1.7-1.3 3-3 3H23.2c-1.7 0-3-1.3-3-3V327.9c0-1.7 1.3-3 3-3h182.1c1.7 0 3.1 1.4 3.1 3z" fill="#33ABE3" p-id="2708"></path><path d="M167.9 933H60.6C27.2 933 0 905.8 0 872.4V365.3c0-33.4 27.2-60.6 60.6-60.6h107.3c33.4 0 60.6 27.2 60.6 60.6v507.1c0.1 33.4-27.1 60.6-60.6 60.6zM60.6 345.1c-11.1 0-20.2 9.1-20.2 20.2v507.1c0 11.1 9.1 20.2 20.2 20.2h107.3c11.1 0 20.2-9.1 20.2-20.2V365.3c0-11.1-9.1-20.2-20.2-20.2H60.6z" fill="#403F3F" p-id="2709"></path><path d="M869.7 234H270c-1.7 0-3-1.3-3-3V47c0-1.7 1.3-3 3-3h599.7c1.7 0 3 1.3 3 3v184c0 1.6-1.3 3-3 3z" fill="#FFFFFF" p-id="2710"></path><path d="M832.3 254.2H307.4c-33.4 0-60.6-27.2-60.6-60.6V84.4c0-33.4 27.2-60.6 60.6-60.6h524.9c33.4 0 60.6 27.2 60.6 60.6v109.1c0 33.5-27.1 60.7-60.6 60.7z m-524.9-190c-11.1 0-20.2 9.1-20.2 20.2v109.1c0 11.1 9.1 20.2 20.2 20.2h524.9c11.1 0 20.2-9.1 20.2-20.2V84.4c0-11.1-9.1-20.2-20.2-20.2H307.4z" fill="#403F3F" p-id="2711"></path></svg>