<?xml version="1.0" standalone="no"?><!DOCTYPE svg PUBLIC "-//W3C//DTD SVG 1.1//EN" "http://www.w3.org/Graphics/SVG/1.1/DTD/svg11.dtd"><svg t="1744903871477" class="icon" viewBox="0 0 1024 1024" version="1.1" xmlns="http://www.w3.org/2000/svg" p-id="1883" xmlns:xlink="http://www.w3.org/1999/xlink" width="200" height="200"><path d="M20.298018 583.742994a491.651987 419.759008 0 1 0 983.303974 0 491.651987 419.759008 0 1 0-983.303974 0Z" fill="#FFFFFF" p-id="1884"></path><path d="M511.950005 1023.90001c-282.272434 0-511.950005-197.480715-511.950005-440.057026C0 341.066693 229.677571 143.685968 511.950005 143.685968s511.950005 197.480715 511.950005 440.157016c0 242.576311-229.677571 440.057026-511.950005 440.057026z m0-839.418026c-259.974612 0-471.45396 179.182502-471.45396 399.361C40.496045 803.921492 251.975393 983.103994 511.950005 983.103994s471.45396-179.182502 471.453959-399.361S771.924617 184.481984 511.950005 184.481984z" fill="#403F3F" p-id="1885"></path><path d="M349.965824 164.083976h323.968362v105.889659H349.965824z" fill="#33ABE3" p-id="1886"></path><path d="M694.132214 290.371643H329.767796V143.685968h364.364418v146.685675z m-323.968363-40.796016h283.572308v-65.093643H370.163851v65.093643z" fill="#403F3F" p-id="1887"></path><path d="M417.659213 20.398008L246.47593 164.083976h530.94815L606.240797 20.398008z" fill="#FFFFFF" p-id="1888"></path><path d="M777.42408 184.481984h-530.94815c-8.49917 0-16.098428-5.399473-18.998145-13.498682-2.899717-8.099209-0.499951-17.09833 6.099405-22.597793L404.760473 4.699541c3.599648-2.999707 8.199199-4.699541 12.89874-4.699541h188.581584c4.699541 0 9.299092 1.699834 12.89874 4.699541l171.183283 143.685968c6.599356 5.499463 8.999121 14.498584 6.099404 22.597793-2.899717 8.099209-10.498975 13.498682-18.998144 13.498682z m-475.053608-40.796016h419.059076L598.94151 40.796016H424.9585L302.370472 143.685968z" fill="#403F3F" p-id="1889"></path><path d="M479.353188 237.376819h-46.195489c-11.198906 0-20.198028-9.099111-20.198027-20.398008 0-11.298897 9.099111-20.398008 20.198027-20.398008h46.195489c11.198906 0 20.198028 9.099111 20.198028 20.398008 0 11.298897-8.999121 20.398008-20.198028 20.398008zM590.74231 237.376819h-46.195488c-11.198906 0-20.198028-9.099111-20.198028-20.398008 0-11.298897 9.099111-20.398008 20.198028-20.398008h46.195488c11.198906 0 20.198028 9.099111 20.198028 20.398008 0 11.298897-9.099111 20.398008-20.198028 20.398008z" fill="#FFFFFF" p-id="1890"></path><path d="M680.433551 269.973635h-336.967093L213.879113 388.862025h596.141783z" fill="#FFFFFF" p-id="1891"></path><path d="M810.020896 409.260033H213.879113c-8.39918 0-15.798457-5.199492-18.898154-12.99873-2.999707-7.899229-0.899912-16.79836 5.299482-22.397813l129.587345-118.88839c3.699639-3.399668 8.59916-5.299482 13.598672-5.299482h336.867103c4.999512 0 9.899033 1.899814 13.598672 5.299482l129.587345 118.88839c6.199395 5.699443 8.29919 14.598574 5.299483 22.397813-2.999707 7.799238-10.498975 12.998731-18.798165 12.99873z m-543.84689-40.796016h491.551997l-85.09169-78.092374H351.265697l-85.091691 78.092374z" fill="#403F3F" p-id="1892"></path><path d="M282.972366 388.862025h457.855288V502.050972H282.972366z" fill="#33ABE3" p-id="1893"></path><path d="M761.125671 522.44898H262.774338v-153.984963h498.251343v153.984963z m-457.855287-40.796016h417.459232v-72.392931H303.270384v72.392931z" fill="#403F3F" p-id="1894"></path><path d="M411.159848 465.854506H364.964359c-11.198906 0-20.198028-9.099111-20.198028-20.398008s8.999121-20.398008 20.198028-20.398008h46.195489c11.198906 0 20.198028 9.099111 20.198027 20.398008s-9.099111 20.398008-20.198027 20.398008zM535.047749 465.854506h-46.195488c-11.198906 0-20.198028-9.099111-20.198028-20.398008s9.099111-20.398008 20.198028-20.398008h46.195488c11.198906 0 20.198028 9.099111 20.198028 20.398008s-9.099111 20.398008-20.198028 20.398008zM658.935651 465.854506h-46.195489c-11.198906 0-20.198028-9.099111-20.198027-20.398008s9.099111-20.398008 20.198027-20.398008H658.935651c11.198906 0 20.198028 9.099111 20.198027 20.398008s-8.999121 20.398008-20.198027 20.398008z" fill="#FFFFFF" p-id="1895"></path><path d="M745.227224 502.050972H278.672786L149.085441 626.638805h725.729128z" fill="#FFFFFF" p-id="1896"></path><path d="M874.814569 646.936823H149.085441c-8.29919 0-15.698467-5.099502-18.798164-12.798751s-1.199883-16.598379 4.799531-22.297822l129.587345-124.587833c3.699639-3.599648 8.69915-5.599453 13.898643-5.599453h466.454447c5.199492 0 10.199004 1.999805 13.898643 5.599453l129.587345 124.587833c5.999414 5.799434 7.899229 14.598574 4.799531 22.297822s-10.298994 12.79875-18.498193 12.798751z m-675.234059-40.696026h624.639l-87.191485-83.791817H286.771995l-87.191485 83.791817z" fill="#403F3F" p-id="1897"></path><path d="M228.477688 626.638805h566.944634v169.683429h-566.944634z" fill="#33ABE3" p-id="1898"></path><path d="M815.62035 816.720242H208.27966V606.240797h607.34069v210.479445z m-566.944635-40.796016h526.54858v-128.987403H248.675715v128.987403z" fill="#403F3F" p-id="1899"></path><path d="M563.844937 675.234059H460.055073c-2.099795 0-3.699639 1.699834-3.699639 3.699639v160.484328c0 2.099795 1.699834 3.699639 3.699639 3.699638H563.944927c2.099795 0 3.699639-1.699834 3.699639-3.699638V678.933698c0-1.999805-1.699834-3.699639-3.799629-3.699639z" fill="#FFFFFF" p-id="1900"></path><path d="M363.864466 731.828532h-46.195488c-11.198906 0-20.198028-9.099111-20.198028-20.398008 0-11.298897 9.099111-20.398008 20.198028-20.398008h46.195488c11.198906 0 20.198028 9.099111 20.198028 20.398008 0 11.298897-8.999121 20.398008-20.198028 20.398008zM706.231032 731.828532h-46.195489c-11.198906 0-20.198028-9.099111-20.198027-20.398008 0-11.298897 9.099111-20.398008 20.198027-20.398008h46.195489c11.198906 0 20.198028 9.099111 20.198028 20.398008 0 11.298897-9.099111 20.398008-20.198028 20.398008z" fill="#FFFFFF" p-id="1901"></path><path d="M878.914169 794.122449H144.985841c-13.698662 0-26.497412 6.799336-33.99668 17.998242L27.297334 938.408359c-18.598184 28.097256 2.099795 65.093643 36.496436 65.093643h896.51245c34.396641 0 55.09462-36.996387 36.496436-65.093643l-83.791817-126.287668c-7.599258-11.198906-20.398008-17.998242-34.09667-17.998242z" fill="#33ABE3" p-id="1902"></path><path d="M960.20623 1023.90001H63.69378c-23.797676 0-45.395567-12.89874-56.394493-33.69671-10.698955-20.298018-9.599063-43.895713 3.199688-63.093838l83.791817-126.287667c11.198906-16.89835 30.197051-26.997364 50.695049-26.997364h733.928328c20.597988 0 39.496143 10.099014 50.795039 27.097354l83.791817 126.287667c12.69876 19.198125 13.898643 42.795821 3.199688 63.093839-11.098916 20.697979-32.696807 33.596719-56.494483 33.596719zM144.985841 814.520457c-6.899326 0-13.498682 3.399668-17.19832 8.899131L43.995704 949.807245c-6.199395 9.299092-2.799727 17.898252-1.099893 21.19793 3.999609 7.599258 11.798848 12.098818 20.797969 12.098819h896.51245c8.999121 0 16.698369-4.499561 20.797969-12.098819 1.699834-3.299678 5.099502-11.898838-1.099893-21.19793l-83.791817-126.287667c-3.699639-5.499463-10.199004-8.899131-17.19832-8.899131H144.985841z" fill="#403F3F" p-id="1903"></path><path d="M811.72073 919.210233H190.581389c-11.198906 0-20.198028-9.099111-20.198028-20.398008 0-11.298897 9.099111-20.398008 20.198028-20.398008h621.139341c11.198906 0 20.198028 9.099111 20.198028 20.398008 0 11.298897-9.099111 20.398008-20.198028 20.398008z" fill="#FFFFFF" p-id="1904"></path></svg>